# xmcd
#
# Track frame offsets:
#	150
#	19494
#	32856
#	49139
#	60135
#	73920
#	86990
#	98754
#	110073
#	121398
#	133124
#
# Disc length: 1959 seconds
#
# Revision: 0
# Processed by: cddbd v1.5.2PL0 Copyright (c) Steve Scherf et al.
# Submitted via: audiograbber 1.82.01
#
DISCID=a007a50b
DTITLE=Tammy Wynette - Kids Say The Darndest Things
DYEAR=1973
DGENRE=Country
TTITLE0=Bedtime Story
TTITLE1=My Daddy Doll
TTITLE2=I Wish I Had A Mommy Like You
TTITLE3=Listen Spot
TTITLE4=D - I - V - O - R - C - E
TTITLE5=Kids Say The Darndest Things
TTITLE6=I Don't Wanna Play House
TTITLE7=Too Many Daddies
TTITLE8=Joey
TTITLE9=Buy Me A Daddy
TTITLE10=Don't Make Me Go To School
EXTD=
EXTT0=
EXTT1=
EXTT2=
EXTT3=
EXTT4=
EXTT5=
EXTT6=
EXTT7=
EXTT8=
EXTT9=
EXTT10=
PLAYORDER=
